<?xml version="1.0" standalone="no"?>
<!DOCTYPE svg PUBLIC "-//W3C//DTD SVG 20010904//EN"
 "http://www.w3.org/TR/2001/REC-SVG-20010904/DTD/svg10.dtd">
<svg version="1.0" xmlns="http://www.w3.org/2000/svg"
 width="979.000000pt" height="979.000000pt" viewBox="0 0 979.000000 979.000000"
 preserveAspectRatio="xMidYMid meet">
<metadata>
Created by potrace 1.14, written by Peter Selinger 2001-2017
</metadata>
<g transform="translate(0.000000,979.000000) scale(0.100000,-0.100000)"
fill="#000000" stroke="none">
<path d="M6060 8899 c-153 -31 -237 -64 -336 -135 -140 -99 -245 -269 -270
-436 -10 -69 -12 -288 -3 -294 7 -4 258 -6 587 -4 l112 0 0 100 c0 166 34 209
159 201 25 -1 87 -59 89 -82 1 -8 3 -28 5 -46 10 -73 -51 -181 -167 -298 -109
-109 -219 -195 -616 -479 l-115 -83 2 -124 c1 -68 2 -193 2 -276 l1 -153 788
0 788 0 0 277 -1 278 -307 0 c-168 0 -309 3 -313 6 -3 4 36 41 87 84 333 275
446 393 523 546 63 124 78 243 51 399 -61 342 -372 540 -845 537 -86 0 -167
-7 -221 -18z"/>
<path d="M7190 8653 c0 -131 -2 -426 -3 -655 -2 -230 -1 -422 2 -426 3 -4 174
-8 379 -7 231 0 385 -3 404 -10 83 -27 99 -153 25 -192 -28 -15 -75 -17 -417
-19 -212 -1 -387 -2 -390 -3 -5 -1 -5 -434 -1 -534 1 -18 25 -18 554 -15 l552
4 92 30 c272 92 422 308 426 614 1 58 -2 123 -5 146 -26 161 -138 332 -274
419 -86 56 -168 86 -304 109 -14 3 -96 5 -182 5 l-158 1 0 105 c0 77 3 105 13
106 6 1 174 2 372 3 l360 1 0 275 0 275 -722 3 -723 2 0 -237z"/>
<path d="M2245 6820 c-6 -10 -40 -123 -84 -280 -29 -100 -249 -853 -283 -965
-16 -55 -36 -122 -43 -150 -7 -27 -20 -72 -28 -100 -8 -27 -40 -135 -70 -240
-31 -104 -97 -329 -147 -500 -50 -170 -93 -317 -95 -325 -3 -15 -105 -365
-151 -520 -13 -47 -33 -114 -44 -150 -19 -65 -160 -548 -264 -905 -30 -104
-67 -230 -81 -280 -15 -49 -41 -142 -60 -205 -60 -207 -127 -434 -147 -500
-10 -36 -21 -75 -24 -87 -2 -12 -9 -34 -14 -48 -6 -15 -10 -28 -10 -31 0 -2
414 -4 920 -4 l919 0 14 47 c8 27 40 148 73 271 l58 222 955 -2 955 -3 8 -30
c11 -41 69 -256 73 -275 2 -8 17 -63 32 -122 l27 -108 923 0 922 0 -15 48 c-8
26 -21 70 -29 97 -8 28 -36 127 -64 220 -27 94 -90 310 -139 480 -50 171 -145
497 -211 725 -67 228 -129 440 -137 470 -9 30 -20 66 -25 80 -4 14 -38 129
-74 255 -65 224 -128 441 -242 830 -31 105 -59 204 -64 220 -8 31 -26 94 -52
180 -28 93 -199 678 -202 694 -2 9 -13 48 -25 86 -12 39 -26 86 -32 105 -21
76 -220 757 -227 780 l-8 25 -1391 3 c-954 1 -1393 -1 -1397 -8z m1461 -1417
c3 -16 8 -35 11 -43 4 -14 69 -255 78 -292 2 -9 15 -61 30 -115 14 -54 58
-217 96 -363 39 -146 79 -299 91 -340 11 -41 22 -82 24 -90 11 -44 28 -111 98
-374 42 -158 75 -291 72 -293 -4 -4 -1104 -8 -1139 -4 -4 1 -3 9 2 19 5 9 11
31 14 47 3 17 26 107 51 200 94 350 149 558 160 605 2 8 11 42 21 75 16 59 33
125 40 155 2 8 26 98 53 200 28 102 75 280 106 397 31 117 59 219 62 228 5 11
21 15 65 15 56 0 59 -1 65 -27z"/>
</g>
</svg>
